# xmcd
#
# Track frame offsets: 
#        150
#        16374
#        39954
#        60118
#        76592
#        93677
#        115092
#        131390
#        151076
#        173751
#        198101
#        216072
#        234894
#
# Disc length: 3373 seconds
#
# Revision: 6
# Processed by: cddbd v1.5.2PL0 Copyright (c) Steve Scherf et al.
# Submitted via: ExactAudioCopy v1.1
#
DISCID=890d2b0d
DTITLE=Patricia Barber - The Cole Porter Mix
DYEAR=2008
DGENRE=Jazz
TTITLE0=Easy To Love
TTITLE1=Late Afternoon And You
TTITLE2=I Get A Kick Out Of You
TTITLE3=You're The Top
TTITLE4=Just One Of Those Things
TTITLE5=Show
TTITLE6=C'est Magnifique
TTITLE7=Get Out Of Town
TTITLE8=I Concentrate On You
TTITLE9=In The Still Of The Night
TTITLE10=What Is This Thing Called Love
TTITLE11=Miss Otis Regrets
TTITLE12=The New Year's Eve Song
EXTD=
EXTT0=
EXTT1=
EXTT2=
EXTT3=
EXTT4=
EXTT5=
EXTT6=
EXTT7=
EXTT8=
EXTT9=
EXTT10=
EXTT11=
EXTT12=
PLAYORDER=
